<svg xmlns="http://www.w3.org/2000/svg" viewBox="0 0 240 240" role="img" aria-labelledby="title desc">
  <title>Iroko Historical Society placeholder mark</title>
  <desc>Minimal circular tree mark placeholder for the Ewé Database public interface.</desc>
  <circle cx="120" cy="120" r="116" fill="#f8f4ea" stroke="#153d2f" stroke-width="8"/>
  <path d="M120 46c-18 2-31 15-38 30-4 8-6 18-6 27-15 5-24 17-28 30-4 14-1 29 7 40 9 12 22 18 35 21 5 17 17 34 30 43 13-9 25-26 30-43 13-3 26-9 35-21 8-11 11-26 7-40-4-13-13-25-28-30 0-9-2-19-6-27-7-15-20-28-38-30z" fill="#234f3b" opacity="0.12"/>
  <path d="M120 64c-9 0-17 8-17 17 0 7 5 14 12 16-3 10-11 20-20 27-14 11-32 16-42 30-7 9-10 20-9 31 1 8 4 16 10 22 9 10 22 14 35 15 9 1 17 1 24 6 3 2 5 4 7 7 2-3 4-5 7-7 7-5 15-5 24-6 13-1 26-5 35-15 6-6 9-14 10-22 1-11-2-22-9-31-10-14-28-19-42-30-9-7-17-17-20-27 7-2 12-9 12-16 0-9-8-17-17-17z" fill="#234f3b"/>
  <path d="M120 84v100" stroke="#153d2f" stroke-width="10" stroke-linecap="round"/>
  <path d="M120 184c-10 8-18 18-24 30M120 184c10 8 18 18 24 30M120 150c-16 3-31 12-44 26M120 150c16 3 31 12 44 26" stroke="#153d2f" stroke-width="8" stroke-linecap="round" fill="none"/>
  <text x="120" y="223" text-anchor="middle" font-family="Georgia, serif" font-size="18" fill="#153d2f">IHS</text>
</svg>
